<svg xmlns="http://www.w3.org/2000/svg" viewBox="0 0 144.13 147.14"><defs><style>.cls-1{fill:#f8ca4e;}.cls-2{fill:#d35044;}.cls-3{fill:#b7b4b1;}.cls-4{fill:#209a5a;}.cls-5{fill:#5984c5;}.cls-6{fill:none;}.cls-6,.cls-7{stroke:#2c0700;stroke-miterlimit:10;stroke-width:0.25px;}.cls-12,.cls-7{fill:#fff;}.cls-8{fill:#9a834b;}.cls-10,.cls-14,.cls-8,.cls-9{opacity:0.3;}.cls-9{fill:#438050;}.cls-11{fill:#a94f3d;}.cls-13{fill:#5882c4;}.cls-14{font-size:7.77px;fill:#2c0700;font-family:MyriadPro-Regular, Myriad Pro;}</style></defs><title>Asset 2</title><g id="Layer_2" data-name="Layer 2"><g id="Layer_1-2" data-name="Layer 1"><path class="cls-1" d="M138.64,45a74.59,74.59,0,0,1,5.74,28.82c0,40.63-32.26,73.58-72.06,73.58a70.39,70.39,0,0,1-20.23-3L92.82,93.09a28,28,0,0,0,1.8-2.27,29,29,0,0,0,5.44-17C100.06,57.9,87.41,45,71.82,45Z" transform="translate(-0.25 -0.25)"/><path class="cls-2" d="M138.64,45H71.82C56.23,45,43.59,57.9,43.59,73.82A29,29,0,0,0,51,93.24L3.53,51.82C12.68,21.94,40,.25,72.32.25,102.1.25,127.66,18.69,138.64,45Z" transform="translate(-0.25 -0.25)"/><path class="cls-3" d="M100.06,73.82a29,29,0,0,1-5.44,17l-1.8,2.27A27.85,27.85,0,0,1,51,93.24a29,29,0,0,1-7.37-19.42C43.59,57.9,56.23,45,71.82,45S100.06,57.9,100.06,73.82Zm-4.31,0A23.44,23.44,0,1,0,72.32,97.75,23.68,23.68,0,0,0,95.75,73.82Z" transform="translate(-0.25 -0.25)"/><path class="cls-3" d="M92.82,93.09l1.8-2.27A28,28,0,0,1,92.82,93.09Z" transform="translate(-0.25 -0.25)"/><path class="cls-4" d="M92.82,93.09,52.09,144.45C22.13,135.53.25,107.29.25,73.82a75,75,0,0,1,3.28-22L51,93.24a27.85,27.85,0,0,0,41.86-.15Z" transform="translate(-0.25 -0.25)"/><path class="cls-5" d="M72.32,49.9A23.93,23.93,0,1,1,48.88,73.82,23.68,23.68,0,0,1,72.32,49.9Z" transform="translate(-0.25 -0.25)"/><path class="cls-6" d="M71.82,45c15.59,0,28.24,12.9,28.24,28.82a29,29,0,0,1-5.44,17A27.87,27.87,0,0,1,51,93.24a29,29,0,0,1-7.37-19.42C43.59,57.9,56.23,45,71.82,45Z" transform="translate(-0.25 -0.25)"/><ellipse class="cls-7" cx="71.57" cy="73.57" rx="28.24" ry="28.82"/><ellipse class="cls-5" cx="72.07" cy="73.57" rx="23.44" ry="23.92"/><polygon class="cls-8" points="138.39 44.74 73.11 44.74 73.11 49.65 138.39 44.74"/><polygon class="cls-9" points="92.58 92.83 51.84 144.2 88.56 90.57 92.58 92.83"/><g class="cls-10"><polygon class="cls-11" points="51.84 85.64 48.63 91.18 3.28 51.57 51.84 85.64"/></g><ellipse class="cls-12" cx="71.57" cy="73.57" rx="28.24" ry="28.82"/><ellipse class="cls-13" cx="71.57" cy="73.57" rx="23.44" ry="23.92"/><text class="cls-14" transform="matrix(0.73, -0.68, 0.67, 0.74, 112.12, 94.15)">hej</text></g></g></svg>