<svg xmlns="http://www.w3.org/2000/svg" viewBox="0 0 377.58 264.56"><defs><style>.cls-1,.cls-8,.cls-9{fill:#ceccca;}.cls-1,.cls-10,.cls-2,.cls-4,.cls-5,.cls-6,.cls-8{stroke:#2c0700;stroke-miterlimit:10;}.cls-1,.cls-2,.cls-4,.cls-5,.cls-6{stroke-width:0.25px;}.cls-2,.cls-7{fill:#b7b4b1;}.cls-3{font-size:8px;fill:#2c0700;}.cls-11,.cls-3{font-family:Helvetica-Light, Helvetica;font-weight:300;}.cls-12,.cls-15,.cls-4{fill:#fff121;}.cls-4,.cls-5,.cls-6{opacity:0.8;}.cls-13,.cls-16,.cls-5{fill:#00a656;}.cls-11,.cls-6{fill:#f02a2a;}.cls-10,.cls-8{stroke-width:0.5px;}.cls-10{fill:none;}.cls-11{font-size:80px;}.cls-12{letter-spacing:0em;}.cls-13{letter-spacing:0em;}.cls-14{letter-spacing:0em;}.cls-16{letter-spacing:0em;}</style></defs><title>Asset 1</title><g id="Layer_2" data-name="Layer 2"><g id="Layer_1-2" data-name="Layer 1"><rect class="cls-1" x="0.2" y="0.13" width="377.26" height="264.31" rx="10.34"/><rect class="cls-2" x="0.13" y="0.16" width="377.26" height="52.25" rx="5.17"/><rect class="cls-1" x="0.2" y="27.21" width="377.26" height="26.12"/><rect class="cls-1" x="60.27" y="0.16" width="92.75" height="27.05"/><text class="cls-3" transform="translate(67.2 15.36)">Ny fane</text><circle class="cls-4" cx="31.93" cy="13.19" r="3.7"/><circle class="cls-5" cx="43.62" cy="13.19" r="3.7"/><circle class="cls-6" cx="20.24" cy="13.19" r="3.7"/><line class="cls-1" x1="137.18" y1="10.08" x2="143.46" y2="16.36"/><line class="cls-1" x1="137.18" y1="16.36" x2="143.46" y2="10.08"/><rect class="cls-7" x="60.27" y="28.93" width="270.47" height="22.69" rx="11.35"/><circle class="cls-8" cx="47.37" cy="41.27" r="7.36"/><rect class="cls-9" x="52.48" y="39.99" width="7.14" height="7.14"/><polyline class="cls-10" points="50.51 37.57 54.73 40.31 57.48 36.09"/><polyline class="cls-8" points="31.55 38.32 34.46 41.23 31.47 44.22"/><polyline class="cls-8" points="8.56 44.21 5.45 41.52 8.21 38.33"/><line class="cls-8" x1="9.02" y1="41.27" x2="31.47" y2="41.27"/><rect class="cls-9" x="16.43" y="39.2" width="7.62" height="4.15"/><text class="cls-3" transform="translate(73.83 43.34)">apple.com/dk</text><text class="cls-11" transform="translate(60.27 226.39)">G<tspan class="cls-12" x="62.24" y="0">o</tspan><tspan class="cls-13" x="106.72" y="0">o</tspan><tspan class="cls-14" x="151.2" y="0">g</tspan><tspan class="cls-15" x="200.08" y="0">l</tspan><tspan class="cls-16" x="217.84" y="0">e</tspan></text></g></g></svg>